<svg id="Layer_1" data-name="Layer 1" xmlns="http://www.w3.org/2000/svg" viewBox="0 0 188.23 46.39"><defs><style>.cls-1{fill:#80a7ff;}</style></defs><path class="cls-1" d="M16.22,20.17l.54,3h-.34a5,5,0,0,0-1.22-2.3A2.58,2.58,0,0,0,13.3,20a1.57,1.57,0,0,0-1.07.38,1.17,1.17,0,0,0-.43.93,1.11,1.11,0,0,0,.34.84,8.89,8.89,0,0,0,1.53,1,20.53,20.53,0,0,1,2.72,1.68,2.92,2.92,0,0,1,1.22,2.43,3,3,0,0,1-.3,1.36,2.73,2.73,0,0,1-.87,1,4.11,4.11,0,0,1-1.37.69,6,6,0,0,1-1.73.24,12.38,12.38,0,0,1-3.72-.71L9.31,26h.31q1.16,4,3.59,4a2,2,0,0,0,1.42-.51,1.74,1.74,0,0,0,.55-1.35,1.61,1.61,0,0,0-.65-1.35,17.08,17.08,0,0,0-1.9-1.15,14.51,14.51,0,0,1-2.07-1.3,2.4,2.4,0,0,1-.91-1.93,2.48,2.48,0,0,1,1-2,3.89,3.89,0,0,1,2.53-.79A9.77,9.77,0,0,1,16.22,20.17ZM10,29.54l.23.08a10.27,10.27,0,0,0,1.16.34l.28.07a6.72,6.72,0,0,1-1-.8,7.51,7.51,0,0,1-.81-1.09Zm4.22.55A3,3,0,0,0,16,29.28a2.26,2.26,0,0,0,.65-1.66,2.48,2.48,0,0,0-.74-1.77,9.8,9.8,0,0,0-2.48-1.64,11.05,11.05,0,0,1-2-1.32,1.6,1.6,0,0,1-.52-1.16A2.14,2.14,0,0,1,12,20a2.93,2.93,0,0,0-1.44.92,2.15,2.15,0,0,0-.51,1.42,2,2,0,0,0,.67,1.55,12,12,0,0,0,2.06,1.35,13.45,13.45,0,0,1,2.14,1.33,2.11,2.11,0,0,1-.73,3.54Z"/><path class="cls-1" d="M25.43,29.12A5.14,5.14,0,0,1,22,30.45a3.41,3.41,0,0,1-2.31-.75,2.48,2.48,0,0,1-.87-2A3,3,0,0,1,20.56,25a10.67,10.67,0,0,1,4.87-1.11v-.54a11.91,11.91,0,0,0-.09-1.63,3.15,3.15,0,0,0-.26-1,1.47,1.47,0,0,0-.54-.59,1.42,1.42,0,0,0-.77-.23,1.22,1.22,0,0,0-.95.39,2.18,2.18,0,0,0-.43,1.21,2.41,2.41,0,0,1-.33,1.1,1,1,0,0,1-.8.29,1,1,0,0,1-.73-.31,1.07,1.07,0,0,1-.29-.79,1.71,1.71,0,0,1,.47-1.19A3.19,3.19,0,0,1,22,19.81a5.23,5.23,0,0,1,1.84-.31,4.81,4.81,0,0,1,2.27.52,3.42,3.42,0,0,1,1.45,1.44A3.86,3.86,0,0,1,28,22.53a9.83,9.83,0,0,1,.1,1.63v3.69a2.71,2.71,0,0,0,.32,1.51,1.72,1.72,0,0,0,1.18.6v.35H25.43Zm-2.82,1c-1.46-.3-2.18-1.09-2.18-2.38a2.81,2.81,0,0,1,1-2.16,8.7,8.7,0,0,1,1.73-1,7.67,7.67,0,0,0-2.41.81,2.71,2.71,0,0,0-1.46,2.37,2.14,2.14,0,0,0,.78,1.72,3,3,0,0,0,2,.66Zm0-10.13a3.38,3.38,0,0,0-1.45.75,1.6,1.6,0,0,0-.54,1.16.59.59,0,0,0,.12.39.36.36,0,0,0,.3.14.34.34,0,0,0,.27-.11,1.16,1.16,0,0,0,.16-.44,3.37,3.37,0,0,1,.36-1.09A3.36,3.36,0,0,1,22.61,20Zm2.82,8.59V24.31a7.29,7.29,0,0,0-2.14.64,3.52,3.52,0,0,0-1.36,1.14,2.62,2.62,0,0,0-.48,1.53A2,2,0,0,0,22,29a1.66,1.66,0,0,0,1.28.56A3.65,3.65,0,0,0,25.43,28.55Zm.43,1.19h1.9l-.29-.23-.06,0-.16-.13a.66.66,0,0,1-.2-.49V24.12a6.53,6.53,0,0,0-.41-2.67,2.71,2.71,0,0,0-1.81-1.51,2.44,2.44,0,0,1,1,1.83c.05.51.07,1.31.07,2.39Z"/><path class="cls-1" d="M35.25,30.09l-3.77-7.77-.13-.27a6.19,6.19,0,0,0-.9-1.47,1.4,1.4,0,0,0-1-.42v-.35h5.67v.35a2.16,2.16,0,0,0-.95.27.64.64,0,0,0-.28.59,2.57,2.57,0,0,0,.32,1l2.28,4.93,2-4.86a3.75,3.75,0,0,0,.33-1.23.52.52,0,0,0-.28-.5,2.42,2.42,0,0,0-1-.19v-.35H40.8v.35a2.29,2.29,0,0,0-.91.35,2.9,2.9,0,0,0-.57.9l-.23.5,0,.11a.38.38,0,0,0,0,.11l-4,9.61a6.59,6.59,0,0,1-.58,1.16,2.06,2.06,0,0,1-.67.7,1.55,1.55,0,0,1-.78.19,1.67,1.67,0,0,1-1.32-.62,2.23,2.23,0,0,1-.56-1.54,1.53,1.53,0,0,1,.33-1,1.08,1.08,0,0,1,.87-.39.9.9,0,0,1,.67.23,1,1,0,0,1,.27.66l0,.45c0,.52.21.78.52.78a.66.66,0,0,0,.52-.32,5.87,5.87,0,0,0,.57-1.14Zm.86-1.79-3-6.23a2.51,2.51,0,0,1-.29-1,1,1,0,0,1,.52-.89H30.49a2.62,2.62,0,0,1,.6.54,6.93,6.93,0,0,1,.53.91l3.91,8.08Zm-2.22,4.88h-.12a1.22,1.22,0,0,1-1-.37,1.8,1.8,0,0,1-.32-1.17l0-.36c0-.3-.14-.46-.43-.46s-.51.27-.51.81A2,2,0,0,0,32,32.92a1.39,1.39,0,0,0,1.09.53A1.65,1.65,0,0,0,33.89,33.18Z"/><path class="cls-1" d="M61.9,22.66a9.16,9.16,0,0,1,.05.93v4.26a2.71,2.71,0,0,0,.32,1.51,1.8,1.8,0,0,0,1.19.6v.35H57.83V30a1.75,1.75,0,0,0,1.19-.6,2.72,2.72,0,0,0,.31-1.51V23.51a7,7,0,0,0-.18-1.93,1.65,1.65,0,0,0-.59-.91,1.55,1.55,0,0,0-1-.33,2.65,2.65,0,0,0-1.54.51,9.48,9.48,0,0,0-1.76,1.78v5.22a2.71,2.71,0,0,0,.32,1.51,1.72,1.72,0,0,0,1.18.6v.35H50.15V30a1.82,1.82,0,0,0,1.2-.59,2.73,2.73,0,0,0,.32-1.52V22.46a2.71,2.71,0,0,0-.33-1.53,1.68,1.68,0,0,0-1.19-.58v-.28l4.13-.48V22a8,8,0,0,1,2-1.88,4,4,0,0,1,2.09-.58,3.48,3.48,0,0,1,2.19.67,3.42,3.42,0,0,1,1.21,1.92,14.66,14.66,0,0,1,1.39-1.5A4,4,0,0,1,66,19.54a3.81,3.81,0,0,1,1.81.44,3.11,3.11,0,0,1,1.29,1.25,4.65,4.65,0,0,1,.5,2.36v4.26a2.71,2.71,0,0,0,.32,1.51,1.72,1.72,0,0,0,1.18.6v.35H65.43V30a1.75,1.75,0,0,0,1.2-.6A2.71,2.71,0,0,0,67,27.85V23.51a6.87,6.87,0,0,0-.18-1.93,1.74,1.74,0,0,0-.59-.92,1.48,1.48,0,0,0-1-.32,2.77,2.77,0,0,0-1.59.54A8.93,8.93,0,0,0,61.9,22.66ZM51.44,29.74H54l-.31-.23a.09.09,0,0,0,0,0l-.17-.13a.72.72,0,0,1-.19-.49V20.13l-2.1.23.5.36s0,0,0,0l.17.13a.39.39,0,0,1,.16.26,2.85,2.85,0,0,1,0,.61v6.72a2.18,2.18,0,0,1-.05.65,1.05,1.05,0,0,1-.31.35.07.07,0,0,0,0,0Zm7.66,0h2.57l-.3-.23s0,0,0,0l-.17-.13a.7.7,0,0,1-.19-.49V23.58A4.51,4.51,0,0,0,60.38,21a2.45,2.45,0,0,0-.92-.8,2.62,2.62,0,0,0-1.2-.29H58l-.22,0a2,2,0,0,1,1.58.92,5.54,5.54,0,0,1,.43,2.59v5a2.6,2.6,0,0,1-.05.65,1.11,1.11,0,0,1-.3.35l0,0h0Zm7.62,0h2.56L69,29.51a0,0,0,0,0,0,0h0l-.16-.13a.64.64,0,0,1-.19-.49l0-.26v-5a7.61,7.61,0,0,0-.12-1.53A2.73,2.73,0,0,0,68,21,2.51,2.51,0,0,0,65.88,20l-.51,0a2,2,0,0,1,1.58.92,5.54,5.54,0,0,1,.43,2.59v5a2.82,2.82,0,0,1,0,.65,1.11,1.11,0,0,1-.3.35l0,0h0Z"/><path class="cls-1" d="M81,28A7.85,7.85,0,0,1,78.89,30a4.09,4.09,0,0,1-2.16.6,3.72,3.72,0,0,1-1.84-.45,3.41,3.41,0,0,1-1.28-1.25,4.88,4.88,0,0,1-.47-2.36V22.46a2.77,2.77,0,0,0-.32-1.52,1.63,1.63,0,0,0-1.18-.59v-.28l4.13-.48v7A7,7,0,0,0,76,28.54a1.83,1.83,0,0,0,.61.92,1.54,1.54,0,0,0,1,.32A2.72,2.72,0,0,0,79,29.3a9.64,9.64,0,0,0,1.75-1.68l.2-.25V22.46a2.69,2.69,0,0,0-.32-1.52,1.61,1.61,0,0,0-1.18-.59v-.28l4.13-.48v8.26a2.71,2.71,0,0,0,.32,1.51,1.72,1.72,0,0,0,1.18.6v.35H81Zm-6.23-7.92-2.1.24.51.36s0,0,0,0l0,0,.16.13a.39.39,0,0,1,.16.23,3.72,3.72,0,0,1,0,.64v4.78a5.81,5.81,0,0,0,.16,1.51,3.09,3.09,0,0,0,.54,1.07,3.63,3.63,0,0,0,1,.84,2.27,2.27,0,0,0,1.09.3l.37,0a2.29,2.29,0,0,1-1.2-.49A2.1,2.1,0,0,1,75,28.62a8.11,8.11,0,0,1-.2-2Zm6.67,9.62h1.9l-.3-.23,0,0-.17-.13a.7.7,0,0,1-.19-.49V20.13l-2.1.23.51.36s0,0,0,0l0,0,.17.13a.38.38,0,0,1,.15.23,2.88,2.88,0,0,1,0,.64Z"/><path class="cls-1" d="M90.39,22.19a13.1,13.1,0,0,1,1.53-1.54,5.24,5.24,0,0,1,1.41-.87,4.13,4.13,0,0,1,1.47-.25,3.7,3.7,0,0,1,1.82.46,3.28,3.28,0,0,1,1.29,1.24,4.67,4.67,0,0,1,.51,2.36v4.26a2.72,2.72,0,0,0,.31,1.51,1.75,1.75,0,0,0,1.19.6v.35H94.29V30a1.75,1.75,0,0,0,1.19-.6,2.72,2.72,0,0,0,.31-1.51V23.51a7,7,0,0,0-.18-1.93,1.89,1.89,0,0,0-.61-.92,1.61,1.61,0,0,0-1-.32,2.69,2.69,0,0,0-1.59.55,12.37,12.37,0,0,0-2,2v5a2.71,2.71,0,0,0,.32,1.51,1.72,1.72,0,0,0,1.18.6v.35H86.27V30a1.81,1.81,0,0,0,1.19-.59,2.73,2.73,0,0,0,.32-1.52V22.46a2.71,2.71,0,0,0-.33-1.53,1.68,1.68,0,0,0-1.18-.58v-.28l4.12-.48Zm-2.84,7.55h2.56l-.31-.23a.09.09,0,0,0,0,0l-.16-.13a.73.73,0,0,1-.2-.49V20.13l-2.1.23.5.36s0,0,0,0l.17.13a.44.44,0,0,1,.17.26,4.11,4.11,0,0,1,0,.61v6.72a2.18,2.18,0,0,1,0,.65,1.11,1.11,0,0,1-.3.35.07.07,0,0,0,0,0Zm8,0h2.55l-.29-.23,0,0-.17-.13a.66.66,0,0,1-.19-.49V23.58A7.67,7.67,0,0,0,97.28,22a2.7,2.7,0,0,0-.44-1A2.47,2.47,0,0,0,94.78,20a5.06,5.06,0,0,0-.59.05,2.39,2.39,0,0,1,1.23.47A1.89,1.89,0,0,1,96,21.55a8.17,8.17,0,0,1,.19,1.95v5a2.6,2.6,0,0,1,0,.65,1.11,1.11,0,0,1-.3.35l0,0h0Z"/><path class="cls-1" d="M101.6,24.62v-.48h5.78v.48Z"/><path class="cls-1" d="M118.81,27.72l.3.36a12.22,12.22,0,0,1-1.56,1.49,4.63,4.63,0,0,1-1.44.78,5.73,5.73,0,0,1-1.68.23,5.51,5.51,0,0,1-2.68-.65,4.65,4.65,0,0,1-1.85-1.83,5.37,5.37,0,0,1-.66-2.65,6,6,0,0,1,.45-2.29A5.7,5.7,0,0,1,112.78,20a5.84,5.84,0,0,1,2.26-.45,5.12,5.12,0,0,1,2,.4A3.83,3.83,0,0,1,118.59,21a2.28,2.28,0,0,1,.56,1.48,1.31,1.31,0,0,1-.32.89,1,1,0,0,1-.79.37,1.09,1.09,0,0,1-1-.67,3.49,3.49,0,0,1-.25-1.17,3.31,3.31,0,0,0-.33-1.23,1.41,1.41,0,0,0-.59-.54A1.92,1.92,0,0,0,115,20a2.29,2.29,0,0,0-1.57.62,3.91,3.91,0,0,0-1,1.71,8.29,8.29,0,0,0-.37,2.57,7.2,7.2,0,0,0,.43,2.58,3.82,3.82,0,0,0,1.18,1.74,2.75,2.75,0,0,0,1.78.61,3,3,0,0,0,1.11-.21,4.25,4.25,0,0,0,1.12-.68A9.3,9.3,0,0,0,118.81,27.72Zm-4.43,2.51c-2.34-.61-3.5-2.34-3.5-5.2a6.58,6.58,0,0,1,.47-2.69A5.81,5.81,0,0,1,113,20.26a5.49,5.49,0,0,0-3.29,5.16,5,5,0,0,0,.6,2.46A4.45,4.45,0,0,0,112,29.6,4.89,4.89,0,0,0,114.38,30.23Zm2.18-10a3.37,3.37,0,0,1,.48.81,7.28,7.28,0,0,1,.21,1.12,3.05,3.05,0,0,0,.22.89.41.41,0,0,0,.39.2c.29,0,.43-.2.43-.61C118.29,21.82,117.71,21,116.56,20.26Z"/><path class="cls-1" d="M124.43,22.19A13.91,13.91,0,0,1,126,20.65a5.24,5.24,0,0,1,1.41-.87,4.22,4.22,0,0,1,1.48-.25,3.66,3.66,0,0,1,1.81.46,3.28,3.28,0,0,1,1.29,1.24,4.67,4.67,0,0,1,.51,2.36v4.26a2.71,2.71,0,0,0,.32,1.51A1.72,1.72,0,0,0,134,30v.35h-5.63V30a1.73,1.73,0,0,0,1.19-.6,2.72,2.72,0,0,0,.31-1.51V23.51a7.51,7.51,0,0,0-.17-1.93,1.91,1.91,0,0,0-.62-.92,1.58,1.58,0,0,0-1-.32,2.72,2.72,0,0,0-1.6.55,12,12,0,0,0-2,2v5a2.72,2.72,0,0,0,.31,1.51,1.75,1.75,0,0,0,1.19.6v.35H120.3V30a1.79,1.79,0,0,0,1.19-.59,2.64,2.64,0,0,0,.32-1.52V15.46a2.81,2.81,0,0,0-.32-1.53,1.71,1.71,0,0,0-1.19-.58v-.28l4.13-.48Zm-2.85,7.55h2.57l-.31-.23,0,0-.17-.13a.72.72,0,0,1-.19-.49V13.13l-2.1.23.5.36,0,0,.16.13a.4.4,0,0,1,.17.26,2.91,2.91,0,0,1,0,.61V28.48a2.6,2.6,0,0,1,0,.65,1.37,1.37,0,0,1-.31.35.07.07,0,0,0,0,0Zm8,0h2.55l-.3-.23-.05,0-.16-.13a.66.66,0,0,1-.2-.49V23.58a7,7,0,0,0-.13-1.54,2.69,2.69,0,0,0-.43-1A2.47,2.47,0,0,0,128.81,20a5.23,5.23,0,0,0-.59.05,2.39,2.39,0,0,1,1.23.47,1.89,1.89,0,0,1,.62,1.05,7.68,7.68,0,0,1,.19,1.95v5a2.82,2.82,0,0,1,0,.65,1.05,1.05,0,0,1-.31.35l0,0h0Z"/><path class="cls-1" d="M137.94,24.33v.29a7.32,7.32,0,0,0,.45,2.67,4,4,0,0,0,1.27,1.77,3.12,3.12,0,0,0,2,.63,3.53,3.53,0,0,0,1.18-.2,5.11,5.11,0,0,0,1.18-.57,8.1,8.1,0,0,0,1.31-1.05l.26.35A9.6,9.6,0,0,1,143,30.05a6.15,6.15,0,0,1-2.64.55,5.64,5.64,0,0,1-2.74-.66,4.75,4.75,0,0,1-1.88-1.89,5.64,5.64,0,0,1-.66-2.74,6,6,0,0,1,.73-2.94,5.66,5.66,0,0,1,7.34-2.29,4.25,4.25,0,0,1,1.75,1.55,5.39,5.39,0,0,1,.74,2.7Zm3,5.89a5.48,5.48,0,0,1-1.46-.35,3.66,3.66,0,0,1-1.08-.71,4.77,4.77,0,0,1-1.22-1.9,7.26,7.26,0,0,1-.43-2.55,8.16,8.16,0,0,1,.18-1.77,5.06,5.06,0,0,1,.58-1.45,5.15,5.15,0,0,1,1.06-1.22,5.72,5.72,0,0,0-2.25,2.1,5.63,5.63,0,0,0-.78,2.93,5.12,5.12,0,0,0,.63,2.52,4.58,4.58,0,0,0,1.75,1.77,4.88,4.88,0,0,0,2.48.64Zm-3-6.33h5.11a6.68,6.68,0,0,0-.34-2.49,2.41,2.41,0,0,0-.85-1.07,2.15,2.15,0,0,0-1.23-.38Q138.17,20,137.94,23.89Zm6.66,0a5.11,5.11,0,0,0-.34-1.72,3.81,3.81,0,0,0-.85-1.3,3.27,3.27,0,0,0-1.29-.77,3.51,3.51,0,0,1,1.07,1.4,5.42,5.42,0,0,1,.33,2c0,.13,0,.25,0,.36Z"/><path class="cls-1" d="M149.8,24.33v.29a7.32,7.32,0,0,0,.45,2.67,3.88,3.88,0,0,0,1.27,1.77,3.11,3.11,0,0,0,1.94.63,3.54,3.54,0,0,0,1.19-.2,5.11,5.11,0,0,0,1.18-.57,8.55,8.55,0,0,0,1.31-1.05l.26.35a9.6,9.6,0,0,1-2.51,1.83,6.16,6.16,0,0,1-2.65.55,5.63,5.63,0,0,1-2.73-.66,4.69,4.69,0,0,1-1.88-1.89,5.64,5.64,0,0,1-.67-2.74,6,6,0,0,1,.74-2.94,5.46,5.46,0,0,1,2-2.09,5.8,5.8,0,0,1,5.32-.2,4.19,4.19,0,0,1,1.75,1.55,5.39,5.39,0,0,1,.75,2.7Zm3,5.89a5.67,5.67,0,0,1-1.47-.35,3.75,3.75,0,0,1-1.07-.71,4.77,4.77,0,0,1-1.22-1.9,7.26,7.26,0,0,1-.44-2.55,8.14,8.14,0,0,1,.19-1.77,4.79,4.79,0,0,1,.58-1.45,5.34,5.34,0,0,1,1-1.22,5.76,5.76,0,0,0-2.24,2.1,5.63,5.63,0,0,0-.78,2.93,5.12,5.12,0,0,0,.63,2.52,4.58,4.58,0,0,0,1.75,1.77,4.88,4.88,0,0,0,2.48.64Zm-3-6.33h5.11a6.89,6.89,0,0,0-.34-2.49,2.41,2.41,0,0,0-.85-1.07,2.15,2.15,0,0,0-1.23-.38Q150,20,149.8,23.89Zm6.66,0a5.11,5.11,0,0,0-.34-1.72,3.69,3.69,0,0,0-.86-1.3A3.16,3.16,0,0,0,154,20.1a3.51,3.51,0,0,1,1.07,1.4,5.65,5.65,0,0,1,.32,2c0,.13,0,.25,0,.36Z"/><path class="cls-1" d="M165.72,20.17l.54,3h-.35a5.09,5.09,0,0,0-1.21-2.3,2.61,2.61,0,0,0-1.91-.84,1.59,1.59,0,0,0-1.07.38,1.21,1.21,0,0,0-.43.93,1.15,1.15,0,0,0,.34.84,8.69,8.69,0,0,0,1.54,1,20.25,20.25,0,0,1,2.71,1.68,2.9,2.9,0,0,1,1.22,2.43,3.12,3.12,0,0,1-.29,1.36,2.92,2.92,0,0,1-.87,1,4.26,4.26,0,0,1-1.38.69,5.93,5.93,0,0,1-1.73.24,12.32,12.32,0,0,1-3.71-.71L158.81,26h.31c.76,2.65,2,4,3.58,4a2,2,0,0,0,1.42-.51,1.75,1.75,0,0,0,.56-1.35,1.64,1.64,0,0,0-.65-1.35,17.08,17.08,0,0,0-1.9-1.15,14.78,14.78,0,0,1-2.08-1.3,2.4,2.4,0,0,1-.91-1.93,2.51,2.51,0,0,1,1-2,3.9,3.9,0,0,1,2.53-.79A9.83,9.83,0,0,1,165.72,20.17Zm-6.23,9.37.23.08a10.06,10.06,0,0,0,1.15.34l.28.07a6.11,6.11,0,0,1-1-.8,6.29,6.29,0,0,1-.81-1.09Zm4.21.55a3,3,0,0,0,1.81-.81,2.23,2.23,0,0,0,.66-1.66,2.45,2.45,0,0,0-.75-1.77A9.7,9.7,0,0,0,163,24.21a10.36,10.36,0,0,1-2-1.32,1.56,1.56,0,0,1-.52-1.16A2.15,2.15,0,0,1,161.51,20a3,3,0,0,0-1.44.92,2.15,2.15,0,0,0-.51,1.42,2,2,0,0,0,.67,1.55,12,12,0,0,0,2.06,1.35,13.72,13.72,0,0,1,2.15,1.33,2.12,2.12,0,0,1-.74,3.54Z"/><path class="cls-1" d="M171.19,24.33v.29a7.32,7.32,0,0,0,.45,2.67,3.9,3.9,0,0,0,1.28,1.77,3.09,3.09,0,0,0,1.94.63,3.48,3.48,0,0,0,1.18-.2,5.11,5.11,0,0,0,1.18-.57,8.57,8.57,0,0,0,1.32-1.05l.25.35a9.57,9.57,0,0,1-2.5,1.83,6.19,6.19,0,0,1-2.65.55,5.64,5.64,0,0,1-2.74-.66A4.81,4.81,0,0,1,169,28.05a5.64,5.64,0,0,1-.66-2.74,5.89,5.89,0,0,1,.74-2.94,5.46,5.46,0,0,1,2-2.09,5.8,5.8,0,0,1,5.32-.2,4.19,4.19,0,0,1,1.75,1.55,5.39,5.39,0,0,1,.74,2.7Zm3,5.89a5.58,5.58,0,0,1-1.46-.35,3.66,3.66,0,0,1-1.08-.71,4.88,4.88,0,0,1-1.22-1.9,7.26,7.26,0,0,1-.43-2.55,8.16,8.16,0,0,1,.18-1.77,5.06,5.06,0,0,1,.58-1.45,5.15,5.15,0,0,1,1.06-1.22,5.69,5.69,0,0,0-2.24,2.1,5.55,5.55,0,0,0-.79,2.93,5.12,5.12,0,0,0,.63,2.52,4.58,4.58,0,0,0,1.75,1.77,4.9,4.9,0,0,0,2.48.64Zm-3-6.33h5.12A6.85,6.85,0,0,0,176,21.4a2.41,2.41,0,0,0-.85-1.07,2.11,2.11,0,0,0-1.23-.38Q171.42,20,171.19,23.89Zm6.67,0a5.11,5.11,0,0,0-.35-1.72,3.67,3.67,0,0,0-.85-1.3,3.14,3.14,0,0,0-1.29-.77,3.42,3.42,0,0,1,1.07,1.4,5.42,5.42,0,0,1,.33,2c0,.13,0,.25,0,.36Z"/></svg>